<?xml version="1.0" encoding="utf-8"?>
<!-- Generator: Adobe Illustrator 17.0.0, SVG Export Plug-In . SVG Version: 6.00 Build 0)  -->
<!DOCTYPE svg PUBLIC "-//W3C//DTD SVG 1.1//EN" "http://www.w3.org/Graphics/SVG/1.1/DTD/svg11.dtd">
<svg version="1.1" xmlns="http://www.w3.org/2000/svg" xmlns:xlink="http://www.w3.org/1999/xlink" x="0px" y="0px"
	 width="218.552px" height="233.167px" viewBox="593.185 0 218.552 233.167" enable-background="new 593.185 0 218.552 233.167"
	 xml:space="preserve">
<g id="Capa_1">
	<path fill="#FFFFFF" d="M36.338,125.691c-1.667-1.333-2.5-3.566-2.5-6.7c0-3.133,1.116-12.616,3.35-28.45
		c2.233-15.833,3.35-27.133,3.35-33.9c0-6.766-0.467-11.183-1.4-13.25c6.8,0.535,11.266,3.2,13.4,8c5.133-2.8,10.783-4.2,16.95-4.2
		c6.166,0,11.033,1.917,14.6,5.75c3.565,3.834,5.35,8.55,5.35,14.15c0,6.934-2.535,13.2-7.6,18.8c-2.467,2.667-5.65,4.834-9.55,6.5
		c-3.9,1.667-8.217,2.5-12.95,2.5c-2,0-3.9-0.133-5.7-0.4l-0.3-4.2c0.266,0,0.533,0,0.8,0c7.533,0,13.533-2.8,18-8.4
		c3.066-4,4.6-8.2,4.6-12.6c0-6.465-2.634-10.732-7.9-12.8c-4.467-1.666-9.467-1.333-15,1v0.2c0,2.534-0.95,10.817-2.85,24.85
		c-1.9,14.035-2.85,25.75-2.85,35.15c0,4.2,0.2,7.467,0.6,9.8c-2.134,0.133-3.534,0.2-4.2,0.2
		C40.738,127.691,38.003,127.023,36.338,125.691z"/>
	<path fill="#FFFFFF" d="M114.236,50.64c0.533,1.1,0.85,2.117,0.95,3.05c0.1,0.934,0.15,2.634,0.15,5.1c0,2.467-1.1,11.234-3.3,26.3
		c-2.2,15.067-3.3,25.617-3.3,31.65c0,6.034,0.466,10.15,1.4,12.35c-5.667-1.467-9.535-3.416-11.6-5.85
		c-2.067-2.433-3.1-5.815-3.1-10.15c0-2.533,0.7-8.966,2.1-19.3c2.465-17.133,3.7-30.4,3.7-39.8c0-2-0.134-4.733-0.4-8.2
		c5.066,0.268,8.766,1.067,11.1,2.4C112.937,48.725,113.702,49.54,114.236,50.64z"/>
	<path fill="#FFFFFF" d="M213.345,54.091c0.133-3.066,0.4-5.233,0.8-6.5c8.201,1.134,16.533,1.7,25,1.7s14.467-0.2,18-0.6
		c1.133-2.666,1.867-4.833,2.201-6.5c4.4,4.4,6.6,8.8,6.6,13.2c0,4.334-3.367,10.667-10.1,19c-3.135,3.935-6.436,7.935-9.9,12
		c-9.6,11.134-17.035,20.8-22.301,29h1.5c16.201,0,28.166-1.266,35.9-3.8c-0.6,4.934-2.1,8.767-4.5,11.5c-2.4,2.734-5.4,4.1-9,4.1
		c-1.867,0-5.734-0.367-11.6-1.1c-5.867-0.733-11.9-1.1-18.1-1.1c-6.201,0-11.9,0.667-17.101,2c1.334-5.133,4.5-8.6,9.5-10.4
		c19.2-22.666,33.366-42.3,42.501-58.9c-17.4,3.734-28.936,5.6-34.602,5.6C214.945,63.29,213.345,60.225,213.345,54.091z"/>
	<path fill="#A0425B" d="M275.443,54.091c0.133-3.066,0.4-5.233,0.8-6.5c8.2,1.134,16.533,1.7,25,1.7c8.466,0,14.466-0.2,18-0.6
		c1.133-2.666,1.866-4.833,2.2-6.5c4.4,4.4,6.6,8.8,6.6,13.2c0,4.334-3.367,10.667-10.1,19c-3.135,3.935-6.435,7.935-9.9,12
		c-9.6,11.134-17.034,20.8-22.3,29h1.5c16.2,0,28.166-1.266,35.9-3.8c-0.601,4.934-2.101,8.767-4.5,11.5c-2.4,2.734-5.4,4.1-9,4.1
		c-1.867,0-5.734-0.367-11.601-1.1s-11.899-1.1-18.1-1.1c-6.2,0-11.9,0.667-17.099,2c1.334-5.133,4.5-8.6,9.5-10.4
		c19.199-22.666,33.365-42.3,42.5-58.9c-17.4,3.734-28.935,5.6-34.601,5.6C277.043,63.29,275.443,60.225,275.443,54.091z"/>
	<path fill="#FFFFFF" d="M368.243,92.591l-9.601-0.1c-2.934,0-5.167,0.034-6.699,0.1c-1,8.867-1.535,16.467-1.601,22.8
		c15.666,0,27.3-1.266,34.9-3.8c-0.601,4.934-2.101,8.767-4.5,11.5c-2.4,2.734-5.4,4.1-9,4.1c-1.067,0-4.05-0.285-8.95-0.85
		c-4.9-0.566-10.084-0.85-15.55-0.85c-5.468,0-10.8,0.565-16,1.7c0.732-3.133,2.333-5.7,4.8-7.7v-0.4c0-3.6,0.933-11.8,2.8-24.6
		c-1.667,0.6-3.1,1.134-4.3,1.6c-0.135-1.466-0.2-2.566-0.2-3.3c0-4.465,1.966-7.3,5.9-8.5c1.2-8.8,2-16.732,2.399-23.8
		c-2.467-0.133-4.034-0.7-4.699-1.7c-0.668-1-1-2.965-1-5.9c0.199-3,0.465-4.965,0.8-5.9c7.466,1,15.716,1.5,24.75,1.5
		c9.032,0,17.75-0.8,26.149-2.4c-0.934,7-5.199,11.2-12.8,12.6c-4.467,0.867-11.1,1.434-19.899,1.7
		c-0.067,0.734-1.035,8.467-2.9,23.2c4,0.134,6.766,0.2,8.3,0.2c6.333,0,10.833-1.1,13.5-3.3c0.133,1.334,0.2,2.334,0.2,3
		C375.042,89.558,372.775,92.591,368.243,92.591z"/>
	<path fill="#FFFFFF" d="M400.142,125.691c-1.667-1.333-2.5-3.566-2.5-6.7c0-3.133,1.115-12.616,3.35-28.45
		c2.233-15.833,3.351-27.133,3.351-33.9c0-6.766-0.468-11.183-1.4-13.25c6.733,0.535,11.2,3.167,13.4,7.9c4.8-2.666,10.25-4,16.35-4
		c6.101,0,11.101,1.75,15,5.25c3.9,3.5,5.851,7.55,5.851,12.15s-1.567,9.184-4.7,13.75c-3.135,4.567-7.8,8.017-14,10.35l1.3,3.9
		c2.4,7.467,5.865,14.85,10.4,22.15c4.532,7.3,8.232,12.283,11.1,14.95c-2.467,0.666-4.917,1-7.35,1
		c-2.435,0-4.885-0.784-7.351-2.35c-2.467-1.567-4.517-3.283-6.149-5.15c-1.635-1.865-3.45-4.833-5.45-8.9
		c-2-4.065-3.435-7.233-4.3-9.5c-0.867-2.266-1.817-4.766-2.851-7.5c-1.034-2.733-1.584-4.2-1.649-4.4
		c-0.067-0.2-0.168-0.45-0.301-0.75c-0.134-0.3-0.234-0.583-0.3-0.85c-1.467,0-2.899,0-4.3,0l-0.3-4.6
		c8.466-0.333,14.766-3.365,18.899-9.1c2.266-3.2,3.4-6.466,3.4-9.8c0-1.266-0.135-2.5-0.4-3.7c-1.134-4.333-3.834-7.033-8.1-8.1
		c-1.2-0.333-2.867-0.5-5-0.5c-2.135,0-4.967,0.7-8.5,2.1c0,2.534-0.95,10.817-2.85,24.85c-1.9,14.035-2.851,25.75-2.851,35.15
		c0,4.2,0.2,7.467,0.601,9.8c-2.135,0.133-3.535,0.2-4.2,0.2C404.542,127.691,401.808,127.023,400.142,125.691z"/>
	<path fill="#FFFFFF" d="M498.84,92.591l-9.601-0.1c-2.934,0-5.167,0.034-6.699,0.1c-1,8.867-1.535,16.467-1.601,22.8
		c15.666,0,27.3-1.266,34.9-3.8c-0.601,4.934-2.101,8.767-4.5,11.5c-2.4,2.734-5.4,4.1-9,4.1c-1.067,0-4.05-0.285-8.95-0.85
		c-4.9-0.566-10.084-0.85-15.55-0.85c-5.468,0-10.8,0.565-16,1.7c0.732-3.133,2.333-5.7,4.8-7.7v-0.4c0-3.6,0.933-11.8,2.8-24.6
		c-1.667,0.6-3.1,1.134-4.3,1.6c-0.135-1.466-0.2-2.566-0.2-3.3c0-4.465,1.966-7.3,5.9-8.5c1.2-8.8,2-16.732,2.399-23.8
		c-2.467-0.133-4.034-0.7-4.699-1.7c-0.668-1-1-2.965-1-5.9c0.199-3,0.465-4.965,0.8-5.9c7.466,1,15.716,1.5,24.75,1.5
		c9.032,0,17.75-0.8,26.149-2.4c-0.934,7-5.199,11.2-12.8,12.6c-4.467,0.867-11.1,1.434-19.899,1.7
		c-0.067,0.734-1.035,8.467-2.9,23.2c4,0.134,6.766,0.2,8.3,0.2c6.333,0,10.833-1.1,13.5-3.3c0.133,1.334,0.2,2.334,0.2,3
		C505.64,89.558,503.372,92.591,498.84,92.591z"/>
	<g>
		<path fill="#4B9C40" d="M203.753,189.795c-2.4,0-4.167-0.617-5.3-1.85c-1.134-1.233-2.1-3.1-2.9-5.6
			c-0.8-2.5-23.826-83.656-26.158-94.591c-1.535,1.334-4.035,2.067-7.5,2.2l-17.1,0.6c-4.067,9.935-35.824,87.784-37.756,95.516
			c-6.4-2.267-9.6-4.833-9.6-7.7c0-1.266,30.691-75.016,34.556-83.216c3.866-8.2,8.25-17.516,13.15-27.95
			c4.9-10.433,8.215-18.016,9.95-22.75l1.8-4.9c-0.535-0.933-1.834-2.633-3.9-5.1c2.4-0.8,4.483-1.2,6.25-1.2
			c1.766,0,3.233,0.134,4.4,0.4c1.166,0.267,2.2,0.717,3.1,1.35c0.9,0.634,1.7,1.284,2.4,1.95c0.7,0.667,1.35,1.65,1.95,2.95
			c0.6,1.3,1.1,2.467,1.5,3.5c0.4,1.035,0.85,2.484,1.35,4.35c0.5,1.867,0.9,3.484,1.2,4.85c0.3,1.367,0.7,3.267,1.2,5.7
			c0.5,2.435,1.016,4.785,1.55,7.05c0.533,2.267,1.465,6.584,2.8,12.95c1.333,6.367,2.383,11.135,3.15,14.3
			c0.766,3.167,1.866,6.717,3.3,10.65c1.433,3.935,24.408,81.475,26.009,83.741C209.286,188.86,206.153,189.795,203.753,189.795z
			 M161.494,52.854c-0.934,2.134-2.984,6.684-6.15,13.65c-3.167,6.967-5.617,12.517-7.35,16.65h20.5
			C165.36,68.754,163.027,58.653,161.494,52.854z"/>
		<path fill="#4B9C40" d="M107.038,186.069c0,0,70.443,15.422,106.115,0.925c-5.81-17.562-4.351-12.894-4.351-12.894
			s-55.582,23.103-108.378-3.497C97.438,178.37,107.038,186.069,107.038,186.069z"/>
		<g>
			<path fill="#4B9C40" d="M109.23,183.132c-4,1.333,3.333,0,4.667,2.667c6,9.333-1.333,23.333,4.667,31.333
				c4.667-9.333-0.667-19.333,0-29.333c8.667-4,8.667,5.333,10.667,10.667h0.667c0.667-5.333-1.333-13.333,6-12.667"/>
		</g>
		<g>
			<path fill="#4B9C40" d="M173.23,189.798c8.667,6.667,1.333,27.333,8,37.333l0,0c10-10.667-4.667-23.333-0.667-34
				s15.333-1.333,16.667,8c4.667-2,3.333-8.667,4-13.333"/>
		</g>
	</g>
</g>
<g id="Capa_2">
	<g>
		<path fill="#4B9C40" d="M754.355,186.537c-2.57,0-4.463-0.661-5.676-1.981c-1.214-1.32-2.249-3.32-3.106-5.997
			s-25.517-89.592-28.014-101.302c-1.644,1.429-4.321,2.214-8.032,2.356l-18.313,0.643c-4.356,10.64-38.366,94.012-40.435,102.293
			c-6.854-2.428-10.281-5.176-10.281-8.246c0-1.356,32.869-80.339,37.008-89.12c4.14-8.782,8.835-18.759,14.083-29.933
			c5.248-11.173,8.798-19.294,10.656-24.364l1.928-5.248c-0.573-0.999-1.964-2.82-4.177-5.462c2.57-0.857,4.801-1.285,6.693-1.285
			c1.891,0,3.462,0.144,4.712,0.428c1.249,0.286,2.356,0.768,3.32,1.446c0.964,0.679,1.821,1.375,2.57,2.088
			c0.75,0.714,1.446,1.767,2.088,3.159c0.643,1.392,1.178,2.642,1.606,3.748c0.428,1.108,0.91,2.66,1.446,4.659
			c0.535,1.999,0.964,3.731,1.285,5.194c0.321,1.464,0.75,3.499,1.285,6.104c0.535,2.608,1.088,5.125,1.66,7.55
			c0.571,2.428,1.569,7.051,2.999,13.869c1.428,6.819,2.552,11.925,3.373,15.315c0.82,3.392,1.998,7.194,3.534,11.406
			c1.535,4.214,26.14,87.256,27.854,89.683C760.281,185.536,756.925,186.537,754.355,186.537z M709.098,39.88
			c-1,2.285-3.196,7.158-6.586,14.618c-3.392,7.461-6.016,13.405-7.871,17.831h21.955C713.238,56.908,710.74,46.09,709.098,39.88z"
			/>
		<path fill="#4B9C40" d="M650.778,182.547c0,0,75.441,16.516,113.644,0.991c-6.222-18.808-4.66-13.809-4.66-13.809
			s-59.526,24.742-116.068-3.745C640.497,174.301,650.778,182.547,650.778,182.547z"/>
		<g>
			<path fill="#4B9C40" d="M653.126,179.401c-4.284,1.428,3.569,0,4.998,2.856c6.426,9.995-1.428,24.989,4.998,33.556
				c4.998-9.995-0.714-20.705,0-31.414c9.282-4.284,9.282,5.711,11.424,11.424h0.714c0.714-5.711-1.428-14.279,6.426-13.566"/>
		</g>
		<g>
			<path fill="#4B9C40" d="M721.667,186.54c9.282,7.14,1.428,29.272,8.568,39.982l0,0c10.71-11.424-4.998-24.989-0.714-36.412
				c4.284-11.424,16.421-1.428,17.85,8.568c4.998-2.142,3.569-9.282,4.284-14.279"/>
		</g>
	</g>
	<path fill="#A0425B" d="M676.521,75.664c0.172-3.977,0.519-6.787,1.038-8.43c10.635,1.471,21.443,2.205,32.425,2.205
		c10.98,0,18.762-0.259,23.346-0.778c1.469-3.458,2.42-6.268,2.853-8.43c5.707,5.707,8.56,11.414,8.56,17.12
		c0,5.621-4.367,13.835-13.1,24.643c-4.066,5.104-8.346,10.292-12.84,15.564c-12.451,14.441-22.093,26.977-28.923,37.613h1.945
		c21.011,0,36.531-1.642,46.562-4.929c-0.78,6.399-2.725,11.371-5.836,14.915c-3.113,3.546-7.004,5.318-11.673,5.318
		c-2.421,0-7.437-0.476-15.046-1.427s-15.433-1.427-23.476-1.427c-8.041,0-15.434,0.865-22.177,2.594
		c1.73-6.657,5.836-11.154,12.321-13.489c24.901-29.398,43.274-54.863,55.122-76.393c-22.568,4.843-37.528,7.263-44.877,7.263
		C678.596,87.595,676.521,83.62,676.521,75.664z"/>
</g>
</svg>
